PathFileType	4	(X/Y/Z)	C:/Users/beibeiliu/ov580/test_trc\sequence.28_training_dense_left.trc
DataRate	CameraRate	NumFrames	NumMarkers	Units	OrigDataRate	OrigDataStartFrame	OrigNumFrames
120	120	14	19	mm	120	250	333
Frame#	Time	ThumbCMC			ThumbMCP			ThumbIP			ThumbTip			IndexMCP			IndexPIP			IndexTip			MiddleMCP			MiddlePIP			MiddleTip			RingMCP			RingPIP			RingTip			PinkyMCP			PinkyPIP			PinkyTip			BackHand1			BackHand2			BackHand3	
		X0	Y0	Z0	X1	Y1	Z1	X2	Y2	Z2	X3	Y3	Z3	X4	Y4	Z4	X5	Y5	Z5	X6	Y6	Z6	X7	Y7	Z7	X8	Y8	Z8	X9	Y9	Z9	X10	Y10	Z10	X11	Y11	Z11	X12	Y12	Z12	X13	Y13	Z13	X14	Y14	Z14	X15	Y15	Z15	X16	Y16	Z16	X17	Y17	Z17	X18	Y18	Z18	
249	2.075	-146.202	38.1428	25.8778	-136.291	33.235	-3.13356	-144.901	33.3779	-29.1766	-162.11	26.1468	-44.0233	-156.96	70.9694	-29.8113	-155.381	77.6352	-46.2896	-154.521	88.5647	-66.3896	-166.609	45.985	-41.2569	-154.601	21.6052	-54.6323	-150.359	2.42879	-27.6467	-177.885	25.8449	-35.8992	-162.212	4.58371	-23.3801	-168.22	16.7275	2.52327	-190.417	17.5381	-31.0105	-176.46	0.043954	-20.7395	-175.198	9.5121	5.15125	-199.214	48.3781	3.78903	-196.645	42.7212	32.3289	-172.676	56.5843	26.1461	
250	2.08333	-153.506	47.0256	24.4557	-136.805	42.4138	-4.47513	-144.076	38.0477	-28.7521	-157.925	26.5357	-41.4449	-164.865	75.3392	-30.7705	-169.915	78.0413	-51.0024	-171.158	87.8307	-77.0433	-170.784	46.0277	-47.2001	-151.107	26.743	-53.8744	-144.721	11.4445	-28.0124	-177.016	27.6508	-36.5001	-160.043	7.76029	-26.8724	-162.479	17.7728	-1.72108	-189.093	15.9489	-29.477	-169.31	2.71092	-19.9712	-168.105	12.425	3.07864	-200.029	47.0148	4.49493	-199.942	41.8027	32.0311	-181.332	57.9378	22.8965	
251	2.09167	-156.98	59.7171	23.1154	-138.097	49.3794	-3.36093	-139.5	37.0704	-27.1221	-151.264	19.2799	-39.8387	-182.562	73.3533	-38.2761	-184.134	74.8098	-59.7911	-184.874	77.8717	-80.4372	-178.314	48.3998	-47.9018	-155.991	34.0134	-56.0561	-144.818	30.8516	-26.287	-175.746	25.7697	-40.447	-152.182	19.6582	-30.293	-159.973	25.7442	-2.98156	-183.397	13.1354	-27.3642	-158.923	8.94654	-20.6287	-162.375	23.101	4.31111	-204.573	40.8992	1.15647	-204.969	38.0965	31.4395	-194.92	58.5807	18.2027	
252	2.1	-171.175	66.0816	18.1927	-146.863	60.4472	-12.0236	-141.315	46.0085	-28.4181	-142.005	23.0243	-40.227	-196.837	66.503	-40.576	-197.947	60.9666	-67.2611	-199.13	60.7776	-89.1946	-182.713	39.8188	-50.8189	-155.714	39.3493	-56.8896	-143.708	46.7339	-24.4753	-173.887	25.3058	-39.4261	-150.207	28.5366	-32.208	-156.247	32.8879	-4.41925	-171.432	7.89784	-27.6746	-151.95	21.6221	-17.6484	-161.309	32.2149	2.27661	-204.629	30.5344	2.16607	-206.55	32.1459	29.7177	-204.627	55.5451	14.8519	
253	2.10833	-181.048	72.6067	16.2699	-158.484	66.9568	-11.3536	-148.166	52.5603	-31.1002	-141.289	31.9727	-42.0071	-204.246	52.3494	-46.3359	-203.41	52.9642	-66.5588	-202.569	51.439	-89.9421	-180.755	36.0068	-50.6834	-155.734	41.3642	-58.2217	-138.574	52.5647	-31.711	-168.216	23.069	-39.4524	-147.442	32.5616	-28.7209	-159.662	39.241	-1.97419	-165.48	9.90989	-26.0149	-148.854	26.9837	-16.0838	-157.042	35.8395	4.35424	-204.617	21.4236	-1.10883	-206.874	24.5024	26.4931	-209.121	51.1619	10.6743	
254	2.11667	-191.269	67.6217	11.3924	-169.215	73.3556	-14.8818	-158.862	60.4091	-31.4547	-149.261	38.6509	-44.0664	-205.606	49.6675	-46.3318	-203.184	46.6981	-69.8476	-197.061	43.3947	-95.201	-181.711	31.7918	-46.5099	-153.553	41.807	-55.6139	-136.601	56.4856	-26.7751	-168.444	20.9421	-36.4357	-146.964	38.5267	-26.4674	-157.809	42.0252	-0.726603	-161.438	8.06223	-22.2719	-148.359	28.4007	-16.7601	-161.339	39.1547	4.12828	-203.36	18.0655	-0.473689	-205.116	22.6889	27.2592	-212.445	44.9683	12.0632	
255	2.125	-195.57	63.1773	11.0869	-176.33	72.699	-10.8286	-163.875	69.9622	-31.5678	-150.37	53.4047	-47.8259	-206.542	42.3437	-46.394	-199.61	37.8349	-72.6985	-190.089	37.3536	-92.2637	-180.553	34.4198	-48.4478	-153.574	40.5926	-50.5385	-145.392	51.682	-19.244	-168.354	21.3359	-35.375	-145.977	37.1934	-23.9467	-159.089	46.0856	0.371001	-158.555	10.2007	-22.6135	-145.47	26.7052	-13.103	-161.543	38.9506	7.25432	-201.438	13.6554	0.531089	-206.327	18.4482	28.0311	-214.45	36.1455	12.6413	
256	2.13333	-202.246	62.7418	12.5131	-180.975	72.8597	-11.4555	-168.501	67.3001	-30.5458	-150.471	60.1142	-49.1376	-206.98	38.566	-46.7102	-197.016	37.8349	-75.3291	-180.419	38.8338	-92.812	-179.42	25.9329	-45.7144	-154.155	42.1826	-48.3966	-154.745	53.2442	-17.3166	-164.881	22.1681	-35.5928	-147.911	39.0446	-25.7462	-159.567	46.3195	-1.45559	-157.665	9.07409	-20.44	-148.671	32.238	-16.6559	-161.115	41.9495	3.12705	-198.604	8.34212	1.03472	-207.055	12.8738	28.5044	-216.135	28.7056	11.9421	
257	2.14167	-207.326	60.2698	11.6466	-186.252	70.7197	-13.4009	-172.682	67.2101	-28.3748	-154.093	60.0389	-44.5368	-207.126	32.3698	-52.0723	-190.837	31.9981	-73.1615	-174.593	39.5358	-86.3149	-182.21	27.039	-48.7137	-155.762	44.2037	-44.2759	-164.446	54.5399	-16.8659	-167.871	17.2278	-33.3246	-149.976	39.1965	-28.0126	-163.268	49.323	-5.54256	-157.591	8.92014	-19.7779	-148.575	32.3146	-17.5024	-158.313	44.5426	2.39106	-197.126	5.53181	0.926688	-206.157	8.15146	30.0344	-215.603	23.627	6.73437	
258	2.15	-210.222	54.4346	10.5799	-190.511	66.5976	-8.42878	-175.737	69.8945	-32.6051	-159.207	62.0657	-45.8166	-205.366	27.7234	-49.6659	-190.315	30.1517	-70.8595	-171.329	43.1435	-81.3026	-180.351	20.5717	-46.27	-160.359	45.2215	-45.904	-168.023	49.6871	-14.3899	-166.44	17.4506	-35.0109	-154.402	41.5891	-30.0144	-166.087	47.1072	-2.53175	-159.767	6.28129	-23.4795	-145.989	28.2065	-24.9568	-153.29	42.9774	-11.1825	-196.659	0.925641	5.49879	-207.234	7.32588	28.7523	-217.193	20.5271	9.68916	
259	2.15833	-212.406	52.8358	8.21647	-193.546	65.7774	-12.4115	-180.03	65.0608	-34.3578	-162.424	64.232	-48.7206	-205.154	24.4552	-48.4806	-192.541	33.6966	-70.7384	-170.56	50.8463	-74.3357	-182.3	19.6311	-46.459	-161.799	40.4493	-48.7323	-172.569	51.6266	-15.8167	-165.949	13.5397	-34.8798	-154.575	35.6667	-32.6544	-169.625	45.4393	-7.09969	-164.768	-0.962056	-18.8838	-146.237	13.0814	-32.5038	-148.481	38.903	-29.2841	-196.967	-2.67539	8.19794	-206.351	5.40143	30.7904	-222.479	19.2014	8.52215	
260	2.16667	-213.598	49.0395	9.20191	-197.105	64.2704	-13.0519	-184.113	65.3299	-32.6132	-168.11	64.1697	-46.4527	-203.723	23.561	-50.5604	-187.124	32.2009	-66.3945	-169.661	57.0786	-63.154	-183.944	19.3782	-45.8463	-163.716	41.054	-48.8416	-173.838	52.3383	-16.5354	-172.061	12.5949	-34.6573	-157.571	35.2239	-36.1466	-167.654	43.8316	-10.3709	-162.632	-6.33821	-22.4376	-151.477	-0.768789	-36.8515	-141.401	22.9218	-48.633	-195.587	-2.86556	7.65901	-205.073	2.14902	30.9996	-218.266	14.659	10.87	
261	2.175	-215.754	47.9505	12.1058	-198.06	63.6752	-12.6233	-184.156	63.8594	-34.705	-169.513	64.8408	-49.436	-207.292	25.75	-52.0877	-187.138	39.4318	-67.6333	-170.476	57.754	-52.5819	-183.418	19.3174	-47.6972	-162.805	41.4089	-46.0439	-171.532	50.3292	-18.1773	-170.18	10.4505	-34.4478	-154.802	35.6199	-33.7298	-169.778	44.3857	-11.3235	-165.822	-6.70675	-18.8445	-152.579	-5.90793	-35.8064	-141.457	4.79584	-54.49	-195.864	-2.24138	2.52738	-203.706	-1.04361	28.1635	-223.642	15.8502	9.11747	
262	2.18333	-217.484	46.8117	11.0836	-199.364	59.2362	-13.1511	-188.92	66.0545	-29.7301	-170.601	66.4501	-52.1877	-204.519	22.6134	-51.4616	-188.142	41.2749	-66.6559	-173.558	60.1031	-47.8595	-185.375	19.3438	-45.5434	-166.74	43.6215	-47.9627	-175.439	49.9403	-15.9223	-169.539	12.074	-36.4282	-158.047	37.5156	-33.4714	-172.291	44.8787	-12.5407	-163.292	-8.75355	-20.1645	-150.767	-8.06583	-37.8941	-145.011	-8.03691	-52.5935	-200.252	-1.28605	5.26108	-204.973	-0.777583	32.4605	-220.032	12.9123	10.7137	
